<svg xmlns="http://www.w3.org/2000/svg" viewBox="0 0 512 512" fill="none" role="img" aria-label="Supreme Ugly deer identity">
  <!-- UGLY DEER identity: supreme ugly -->
  <rect width="512" height="512" fill="#090909"/>
  <g transform="translate(256 276) scale(0.95) translate(-256 -260)">
    <path fill="#8B7355" d="M218 372 C218 430 234 468 256 468 C278 468 294 430 294 372 L294 358 C282 364 269 368 256 368 C243 368 230 364 218 358 Z" />
    <ellipse fill="#8B7355" cx="256" cy="252" rx="86" ry="132" transform="rotate(-6 256 252)" />
    <path fill="#8B7355" d="M176 158 C132 178 118 224 142 262 C162 238 172 196 176 158 Z" />
    <path fill="#6B5344" d="M182 168 C156 182 148 218 162 246 C174 224 178 188 182 168 Z" />
    <path fill="#8B7355" d="M342 142 C388 162 402 210 374 248 C352 222 348 178 342 142 Z" />
    <path fill="#6B5344" d="M334 154 C360 168 368 206 352 234 C340 212 336 176 334 154 Z" />
    <circle cx="198" cy="268" r="12" fill="#7A8B5A" />
    <circle cx="318" cy="244" r="9" fill="#7A8B5A" />
    <circle cx="284" cy="286" r="6" fill="#7A8B5A" />
    <path fill="#6B5344" d="M228 118 C210 96 198 72 192 48 C190 38 198 32 206 38 C214 44 220 68 228 92 C234 108 232 122 228 118 Z" />
    <path fill="#6B5344" d="M214 78 C196 66 184 52 180 44 C176 36 186 34 192 42 C200 54 208 68 216 82 C218 88 216 86 214 78 Z" />
    <path fill="#6B5344" d="M292 132 C318 108 332 82 338 58 C342 48 332 42 324 48 C314 56 304 84 292 108 C286 124 288 136 292 132 Z" />
    <path fill="#6B5344" d="M308 88 C328 78 342 66 348 58 C354 50 344 46 336 54 C324 66 312 78 302 90 C300 96 306 92 308 88 Z" />
    <ellipse fill="#6B5344" cx="262" cy="322" rx="48" ry="68" transform="rotate(8 262 322)" />
    <ellipse cx="192" cy="214" rx="36" ry="20" fill="#1A1A1A" />
    <circle cx="308" cy="204" r="24" fill="#1A1A1A" />
    <ellipse cx="268" cy="312" rx="11" ry="10" fill="#4A3728" />
    <path fill="#4A3728" d="M242 346 C252 356 278 356 288 346 C288 352 278 358 264 358 C250 358 242 352 242 346 Z" />
    <path fill="#C46B6B" d="M256 354 C246 372 242 388 246 404 C252 394 262 388 272 388 C282 388 292 394 298 404 C302 388 298 372 288 354 C278 362 266 362 256 354 Z" />
    <path fill="#FAFAFA" d="M196 118 L204 98 L212 118 Z" opacity="0.85"/>
    <path fill="#FAFAFA" d="M312 108 L320 86 L328 108 Z" opacity="0.85"/>
  </g>
</svg>
