<svg xmlns="http://www.w3.org/2000/svg" viewBox="0 0 512 512" fill="none" role="img" aria-label="Mildly Ugly deer identity">
  <!-- UGLY DEER identity: mildly ugly -->
  <rect width="512" height="512" fill="#090909"/>
  <g transform="translate(256 280) scale(0.85) translate(-256 -260)">
    <path fill="#8B7355" d="M228 372 C228 430 242 468 256 468 C270 468 284 430 284 372 L284 360 C274 364 265 368 256 368 C247 368 238 364 228 360 Z" />
    <ellipse fill="#8B7355" cx="256" cy="252" rx="70" ry="118" transform="rotate(-2 256 252)" />
    <path fill="#8B7355" d="M188 168 C152 184 140 224 158 256 C174 236 182 200 188 168 Z" />
    <path fill="#6B5344" d="M324 168 C360 184 372 224 354 256 C338 236 330 200 324 168 Z" />
    <path fill="#6B5344" d="M236 128 C224 112 218 92 216 74 C214 66 220 62 226 66 C232 72 236 88 238 104 C240 118 238 130 236 128 Z" />
    <path fill="#6B5344" d="M276 128 C288 112 294 92 296 74 C298 66 292 62 286 66 C280 72 276 88 274 104 C272 118 274 130 276 128 Z" />
    <ellipse fill="#6B5344" cx="258" cy="318" rx="38" ry="54" />
    <ellipse cx="210" cy="218" rx="26" ry="14" fill="#1A1A1A" />
    <ellipse cx="298" cy="216" rx="24" ry="14" fill="#1A1A1A" />
    <ellipse cx="260" cy="308" rx="8" ry="7" fill="#4A3728" />
    <rect x="248" y="338" width="20" height="2.5" rx="1.25" fill="#4A3728" />
  </g>
</svg>
