<svg xmlns="http://www.w3.org/2000/svg" viewBox="0 0 512 512" fill="none" role="img" aria-label="Certified Ugly deer identity">
  <!-- UGLY DEER identity: certified ugly -->
  <rect width="512" height="512" fill="#090909"/>
  <g transform="translate(256 280) scale(0.9) translate(-256 -260)">
    <path fill="#8B7355" d="M218 372 C218 430 234 468 256 468 C278 468 294 430 294 372 L294 358 C282 364 269 368 256 368 C243 368 230 364 218 358 Z" />
    <ellipse fill="#8B7355" cx="256" cy="252" rx="80" ry="126" transform="rotate(-5 256 252)" />
    <path fill="#8B7355" d="M176 158 C132 178 118 224 142 262 C162 238 172 196 176 158 Z" />
    <path fill="#6B5344" d="M334 154 C360 168 368 206 352 234 C340 212 336 176 334 154 Z" />
    <path fill="#6B5344" d="M228 118 C210 96 198 72 192 48 C190 38 198 32 206 38 C214 44 220 68 228 92 C234 108 232 122 228 118 Z" />
    <path fill="#6B5344" d="M292 132 C318 108 332 82 338 58 C342 48 332 42 324 48 C314 56 304 84 292 108 C286 124 288 136 292 132 Z" />
    <circle cx="198" cy="268" r="10" fill="#7A8B5A" />
    <ellipse fill="#6B5344" cx="262" cy="322" rx="44" ry="62" transform="rotate(6 262 322)" />
    <ellipse cx="196" cy="214" rx="34" ry="18" fill="#1A1A1A" />
    <circle cx="302" cy="206" r="22" fill="#1A1A1A" />
    <ellipse cx="268" cy="312" rx="10" ry="9" fill="#4A3728" />
    <path fill="#4A3728" d="M244 346 C252 354 276 354 284 346 C284 350 276 356 264 356 C252 356 244 350 244 346 Z" />
    <path fill="#C46B6B" d="M258 354 C252 366 250 378 254 388 C258 382 266 378 272 378 C278 378 286 382 290 388 C294 378 292 366 286 354 C280 360 266 360 258 354 Z" />
  </g>
</svg>
