<svg xmlns="http://www.w3.org/2000/svg" viewBox="0 0 512 512" fill="none" role="img" aria-label="KAIRU light mode">
  <g id="kairu">
    <g id="kairu-antlers">
      <rect x="218" y="92" width="12" height="22" rx="6" fill="#6B5344" />
      <rect x="282" y="92" width="12" height="22" rx="6" fill="#6B5344" />
    </g>
    <g id="kairu-head">
      <circle cx="82" cy="278" r="58" fill="#8A6D56" />
      <circle cx="430" cy="278" r="58" fill="#8A6D56" />
      <ellipse cx="256" cy="278" rx="112" ry="158" fill="#8A6D56" />
    </g>
    <g id="kairu-neck">
      <path fill="#8A6D56" d="M214 402 C214 438 232 456 256 456 C280 456 298 438 298 402 L298 388 C284 396 270 400 256 400 C242 400 228 396 214 388 Z" />
    </g>
    <g id="kairu-snout">
      <ellipse cx="256" cy="348" rx="50" ry="68" fill="#6B5344" />
    </g>
    <g id="kairu-eyes">
      <rect x="112" y="254" width="68" height="16" rx="8" fill="#222222" />
      <rect x="332" y="248" width="68" height="16" rx="8" fill="#222222" />
    </g>
    <g id="kairu-face-details">
      <circle cx="256" cy="332" r="9" fill="#3B2F2F" />
      <rect x="234" y="378" width="44" height="3" rx="1.5" fill="#3B2F2F" />
    </g>
  </g>
</svg>
