<svg xmlns="http://www.w3.org/2000/svg" viewBox="0 0 512 512" fill="none" role="img" aria-label="UGLY DEER dark mode">
  <rect width="512" height="512" fill="#090909"/>
  <g id="ugly-deer">
    <path fill="#8B7355" d="M218 372 C218 430 234 468 256 468 C278 468 294 430 294 372 L294 358 C282 364 269 368 256 368 C243 368 230 364 218 358 Z" />
    <ellipse fill="#8B7355" cx="256" cy="252" rx="82" ry="128" transform="rotate(-4 256 252)" />
    <path fill="#8B7355" d="M176 158 C132 178 118 224 142 262 C162 238 172 196 176 158 Z" />
    <path fill="#6B5344" d="M182 168 C156 182 148 218 162 246 C174 224 178 188 182 168 Z" />
    <path fill="#8B7355" d="M342 142 C388 162 402 210 374 248 C352 222 348 178 342 142 Z" />
    <path fill="#6B5344" d="M334 154 C360 168 368 206 352 234 C340 212 336 176 334 154 Z" />
    <circle cx="198" cy="268" r="10" fill="#7A8B5A" />
    <circle cx="318" cy="244" r="7" fill="#7A8B5A" />
    <path fill="#6B5344" d="M228 118 C210 96 198 72 192 48 C190 38 198 32 206 38 C214 44 220 68 228 92 C234 108 232 122 228 118 Z" />
    <path fill="#6B5344" d="M214 78 C196 66 184 52 180 44 C176 36 186 34 192 42 C200 54 208 68 216 82 C218 88 216 86 214 78 Z" />
    <path fill="#6B5344" d="M292 132 C318 108 332 82 338 58 C342 48 332 42 324 48 C314 56 304 84 292 108 C286 124 288 136 292 132 Z" />
    <path fill="#6B5344" d="M308 88 C328 78 342 66 348 58 C354 50 344 46 336 54 C324 66 312 78 302 90 C300 96 306 92 308 88 Z" />
    <ellipse fill="#6B5344" cx="262" cy="322" rx="46" ry="66" transform="rotate(6 262 322)" />
    <ellipse cx="196" cy="214" rx="34" ry="18" fill="#1A1A1A" />
    <circle cx="302" cy="206" r="22" fill="#1A1A1A" />
    <ellipse cx="268" cy="312" rx="10" ry="9" fill="#4A3728" />
    <path fill="#4A3728" d="M244 346 C252 354 276 354 284 346 C284 350 276 356 264 356 C252 356 244 350 244 346 Z" />
    <path fill="#C46B6B" d="M256 354 C248 368 244 382 248 396 C252 388 260 382 268 382 C276 382 284 388 288 396 C292 382 288 368 280 354 C272 360 264 362 256 354 Z" />
  </g>
</svg>
