<svg xmlns="http://www.w3.org/2000/svg" viewBox="0 0 320 56" shape-rendering="crispEdges">
  <rect x="0" y="36" width="320" height="20" fill="#3f8a34"/>
  <rect x="0" y="32" width="320" height="8" fill="#57a844"/>
  <!-- flower dots -->
  <rect x="24" y="28" width="4" height="4" fill="#f2a0c0"/>
  <rect x="48" y="24" width="4" height="4" fill="#ffe08a"/>
  <rect x="72" y="30" width="4" height="4" fill="#fff8e8"/>
  <rect x="110" y="22" width="4" height="4" fill="#f2a0c0"/>
  <rect x="140" y="26" width="4" height="4" fill="#ffe08a"/>
  <rect x="180" y="20" width="4" height="4" fill="#fff8e8"/>
  <rect x="210" y="28" width="4" height="4" fill="#f2a0c0"/>
  <rect x="250" y="24" width="4" height="4" fill="#ffe08a"/>
  <rect x="280" y="30" width="4" height="4" fill="#f2a0c0"/>
  <!-- grass tufts -->
  <rect x="36" y="18" width="3" height="14" fill="#2f6a28"/>
  <rect x="96" y="14" width="3" height="16" fill="#3a7a30"/>
  <rect x="200" y="16" width="3" height="14" fill="#2f6a28"/>
  <rect x="268" y="12" width="3" height="18" fill="#3a7a30"/>
</svg>
