<svg xmlns="http://www.w3.org/2000/svg" viewBox="0 0 320 72" shape-rendering="crispEdges" fill="none">
  <!-- Foreground rocky ledge + moss clumps -->
  <rect x="0" y="40" width="320" height="32" fill="#1a1814"/>
  <rect x="0" y="36" width="48" height="20" fill="#2a2820"/>
  <rect x="36" y="28" width="56" height="28" fill="#323028"/>
  <rect x="80" y="32" width="40" height="24" fill="#26241c"/>
  <rect x="110" y="24" width="70" height="32" fill="#3a3428"/>
  <rect x="170" y="30" width="52" height="26" fill="#2c281e"/>
  <rect x="210" y="22" width="64" height="34" fill="#343028"/>
  <rect x="260" y="34" width="60" height="22" fill="#242018"/>
  <!-- Moss / grass tufts -->
  <rect x="48" y="24" width="6" height="8" fill="#2f5a28"/>
  <rect x="58" y="20" width="4" height="10" fill="#3a6a30"/>
  <rect x="130" y="18" width="6" height="10" fill="#2f5a28"/>
  <rect x="142" y="16" width="4" height="12" fill="#4a7a38"/>
  <rect x="228" y="16" width="6" height="10" fill="#2f5a28"/>
  <rect x="240" y="14" width="4" height="12" fill="#3a6a30"/>
  <rect x="288" y="28" width="5" height="8" fill="#2f5a28"/>
  <!-- Bush clusters -->
  <rect x="12" y="18" width="18" height="14" fill="#1e3a22"/>
  <rect x="18" y="12" width="14" height="12" fill="#274a2a"/>
  <rect x="270" y="20" width="22" height="14" fill="#1e3a22"/>
  <rect x="278" y="14" width="16" height="12" fill="#274a2a"/>
</svg>
